# xmcd CD database file
#
# Track frame offsets:
#	150
#	18043
#	31972
#	53139
#	70427
#	83227
#	104558
#	122461
#	140859
#	152582
#	173103
#	190819
#	197104
#	216693
#	237158
#	262375
#	283962
#	303902
#	329354
#
# Disc length: 4597 seconds
#
# Revision: 0
# Processed by: cddbd v1.5.1PL0 Copyright (c) Steve Scherf et al.
# Submitted via: CDex 1.51
#
DISCID=2311f313
DTITLE=Böhse Onkelz - Gehasst verdammt vergöttert .... die letzen Jahre
DYEAR=1900
DGENRE=New Age
TTITLE0=Lieber Stehend Sterben
TTITLE1=Gehasst Verdammt Vergöttert
TTITLE2=Wir ham noch lange nicht genug
TTITLE3=Ich bin in dir
TTITLE4=Mexico
TTITLE5=Heilige Lieder
TTITLE6=Wenn wir einmal Engel sind
TTITLE7=Wieder mal nen Tag verschenkt
TTITLE8=Scheissegal
TTITLE9=Schöne neue Welt
TTITLE10=Nur die besten Sterben jung
TTITLE11=Ich lieb mich
TTITLE12=Erinnerungen
TTITLE13=Deutschland im Herbst
TTITLE14=Für immer
TTITLE15=Ich bin wie ich bin
TTITLE16=Die Böhsen Onkelz geben sich die Ehre
TTITLE17=Worte der Freiheit
TTITLE18=Nenn mich wie du willst
EXTD=
EXTT0=
EXTT1=
EXTT2=
EXTT3=
EXTT4=
EXTT5=
EXTT6=
EXTT7=
EXTT8=
EXTT9=
EXTT10=
EXTT11=
EXTT12=
EXTT13=
EXTT14=
EXTT15=
EXTT16=
EXTT17=
EXTT18=
PLAYORDER=
